<svg width="512" height="512" viewBox="0 0 512 512" fill="none" xmlns="http://www.w3.org/2000/svg">
<rect width="512" height="512" rx="100" fill="url(#paint0_linear_4_63)"/>
<g filter="url(#filter0_i_4_63)">
<path d="M238.812 60C168.947 68.7588 115 128.819 115 201.749H238.812M115 309C115 346.926 129.908 383.298 156.444 410.116C182.981 436.934 218.972 452 256.5 452C294.028 452 330.019 436.934 356.556 410.116C383.092 383.298 398 346.926 398 309V237.499H115M274.188 60V201.749H398C398 128.819 343.876 68.7588 274.188 60Z" fill="white"/>
</g>
<defs>
<filter id="filter0_i_4_63" x="115" y="60" width="283" height="392" filterUnits="userSpaceOnUse" color-interpolation-filters="sRGB">
<feFlood flood-opacity="0" result="BackgroundImageFix"/>
<feBlend mode="normal" in="SourceGraphic" in2="BackgroundImageFix" result="shape"/>
<feColorMatrix in="SourceAlpha" type="matrix" values="0 0 0 0 0 0 0 0 0 0 0 0 0 0 0 0 0 0 127 0" result="hardAlpha"/>
<feOffset/>
<feGaussianBlur stdDeviation="7.5"/>
<feComposite in2="hardAlpha" operator="arithmetic" k2="-1" k3="1"/>
<feColorMatrix type="matrix" values="0 0 0 0 0 0 0 0 0 0 0 0 0 0 0 0 0 0 0.2 0"/>
<feBlend mode="normal" in2="shape" result="effect1_innerShadow_4_63"/>
</filter>
<linearGradient id="paint0_linear_4_63" x1="511.756" y1="512" x2="0.24436" y2="2.5159e-05" gradientUnits="userSpaceOnUse">
<stop stop-color="#929292"/>
<stop offset="1" stop-color="#DBDBDB"/>
</linearGradient>
</defs>
</svg>
